<?xml version="1.0" encoding="UTF-8"?>
<svg width="166px" height="58px" viewBox="0 0 166 58" version="1.1" xmlns="http://www.w3.org/2000/svg" xmlns:xlink="http://www.w3.org/1999/xlink">
    <!-- Generator: Sketch 42 (36781) - http://www.bohemiancoding.com/sketch -->
    <title>Rehan Logo</title>
    <desc>Created with Sketch.</desc>
    <defs></defs>
    <g id="Welcome" stroke="none" stroke-width="1" fill="none" fill-rule="evenodd">
        <g id="Desktop-HD-Copy-2" transform="translate(-639.000000, -2266.000000)" fill="#A7A7A7">
            <path d="M672.102962,2291.9959 L663.380668,2291.9959 C659.528898,2291.9959 656.022687,2289.08742 656.022687,2284.55648 C656.022687,2281.13233 659.528898,2278.22385 663.380668,2278.22385 L672.102962,2278.22385 L672.102962,2291.9959 Z M711.881527,2278.22385 L686.818296,2278.22385 L686.818296,2291.9959 L708.545109,2291.9959 L708.545109,2300.80623 L686.818296,2300.80623 L686.818296,2311.24217 L711.881527,2311.24217 L711.881527,2323.30371 L672.102962,2323.30371 L672.102962,2300.80623 L667.367329,2300.80623 C662.107226,2310.58815 658.68937,2316.94593 655.271513,2323.30371 L638.99975,2323.30371 C643.590117,2316.20388 648.181112,2309.10404 653.544977,2300.80623 C646.184166,2298.6681 641.310498,2293.02408 641.310498,2283.61319 C641.310498,2272.74962 650.718249,2266.25035 664.320814,2266.25035 L711.881527,2266.25035 L711.881527,2278.22385 Z M804.99975,2323.30381 L787.857015,2323.30381 L767.104622,2292.0114 L767.104622,2323.30381 L752.392432,2323.30381 L752.392432,2300.80601 L734.08662,2300.80601 L734.08662,2323.30381 L719.374431,2323.30381 L719.374431,2266.25044 L734.08662,2266.25044 L734.08662,2291.99599 L752.392432,2291.99599 L752.392432,2266.25044 L767.104622,2266.25044 L804.99975,2323.30381 Z M804.99975,2266.25038 L804.99975,2309.75809 L790.287561,2287.60648 L790.287561,2266.25038 L804.99975,2266.25038 Z" id="Rehan-Logo"></path>
        </g>
    </g>
</svg>